<svg width="67" height="67" xmlns="http://www.w3.org/2000/svg">

 <g>
  <title>background</title>
  <rect fill="none" id="canvas_background" height="402" width="582" y="-1" x="-1"/>
 </g>
 <g>
  <title>Layer 1</title>
  <path id="svg_1" fill-rule="evenodd" clip-rule="evenodd" fill="#ffffff" d="m21.543,34.568c-0.054,0 0.592,1.367 0.61,1.367c1.41,2.516 4.128,4.08 8.713,4.513c-0.654,0.488 -1.44,1.415 -1.549,2.486c-0.823,0.522 -2.478,0.695 -3.764,0.297c-1.803,-0.56 -2.493,-4.067 -5.192,-3.567c-0.584,0.108 -0.468,0.486 0.037,0.809c0.823,0.522 1.597,1.178 2.194,2.571c0.459,1.07 1.423,2.982 4.473,2.982c1.21,0 2.058,-0.144 2.058,-0.144s0.023,2.731 0.023,3.793c0,1.225 -1.682,1.57 -1.682,2.159c0,0.232 0.557,0.255 1.004,0.255c0.884,0 2.723,-0.726 2.723,-1.998c0,-1.011 0.017,-4.411 0.017,-5.006c0,-1.3 0.709,-1.712 0.709,-1.712s0.088,6.941 -0.169,7.872c-0.302,1.094 -0.847,0.938 -0.847,1.427c0,0.726 2.214,0.178 2.948,-1.416c0.567,-1.24 0.319,-8.05 0.319,-8.05l0.605,-0.012c0,0 0.034,3.117 0.013,4.542c-0.021,1.476 -0.122,3.342 0.77,4.222c0.586,0.578 2.484,1.594 2.484,0.666c0,-0.539 -1.04,-0.982 -1.04,-2.441l0,-6.715c0.831,0 0.706,2.208 0.706,2.208l0.061,4.103c0,0 -0.184,1.494 1.645,2.12c0.645,0.222 2.025,0.281 2.09,-0.091c0.065,-0.373 -1.662,-0.927 -1.678,-2.085c-0.01,-0.706 0.032,-1.118 0.032,-4.186c0,-3.068 -0.419,-4.202 -1.88,-5.105c4.508,-0.456 7.299,-1.552 8.658,-4.487c0.106,0.003 0.555,-1.371 0.496,-1.371c0.305,-1.108 0.47,-2.419 0.502,-3.972c-0.008,-4.209 -2.058,-5.698 -2.451,-6.397c0.58,-3.187 -0.098,-4.638 -0.412,-5.135c-1.162,-0.406 -4.041,1.044 -5.615,2.066c-2.564,-0.736 -7.986,-0.666 -10.019,0.19c-3.751,-2.64 -5.736,-2.235 -5.736,-2.235s-1.283,2.26 -0.339,5.565c-1.234,1.546 -2.154,2.64 -2.154,5.539c0,1.635 0.196,3.097 0.637,4.373zm11.957,-33.568l28.146,16.25l0,32.5l-28.146,16.25l-28.146,-16.25l0,-32.5l28.146,-16.25z"/>
 </g>
</svg>