<svg width="67" height="67" xmlns="http://www.w3.org/2000/svg">

 <g>
  <title>background</title>
  <rect fill="none" id="canvas_background" height="402" width="582" y="-1" x="-1"/>
 </g>
 <g>
  <title>Layer 1</title>
  <path id="svg_1" fill-rule="evenodd" clip-rule="evenodd" fill="#ffffff" d="m44.271,26.578l0,-0.006c0.502,0 1.005,0.01 1.508,-0.002c0.646,-0.017 1.172,-0.57 1.172,-1.217c0,-0.964 0,-1.927 0,-2.891c0,-0.69 -0.547,-1.24 -1.236,-1.24c-0.961,-0.001 -1.922,-0.001 -2.883,0c-0.688,0.001 -1.236,0.552 -1.236,1.242c-0.001,0.955 -0.004,1.91 0.003,2.865c0.001,0.143 0.028,0.291 0.073,0.426c0.173,0.508 0.639,0.82 1.209,0.822c0.463,0.002 0.927,0.001 1.39,0.001zm-9.271,1.239c-3.384,-0.002 -6.135,2.721 -6.182,6.089c-0.049,3.459 2.72,6.201 6.04,6.272c3.454,0.074 6.248,-2.686 6.321,-6.042c0.075,-3.461 -2.717,-6.321 -6.179,-6.319zm-11.954,3.299l0,0.082c0,4.515 -0.001,9.03 0,13.545c0,0.649 0.562,1.208 1.212,1.208c7.16,0.001 14.319,0.001 21.479,0c0.656,0 1.215,-0.558 1.215,-1.212c0.001,-4.51 0,-9.019 0,-13.528l0,-0.094l-2.912,0c0.411,1.314 0.537,2.651 0.376,4.014c-0.161,1.363 -0.601,2.632 -1.316,3.803c-0.716,1.173 -1.644,2.145 -2.779,2.917c-2.944,2.006 -6.821,2.183 -9.946,0.429c-1.579,-0.886 -2.819,-2.121 -3.685,-3.712c-1.289,-2.374 -1.495,-4.866 -0.739,-7.452c-0.968,0 -1.93,0 -2.905,0zm24.159,18.139c0.159,-0.026 0.318,-0.049 0.475,-0.083c1.246,-0.265 2.264,-1.304 2.508,-2.557c0.025,-0.136 0.045,-0.273 0.067,-0.409l0,-24.412c-0.021,-0.134 -0.04,-0.268 -0.065,-0.4c-0.268,-1.368 -1.396,-2.429 -2.78,-2.618c-0.058,-0.008 -0.113,-0.021 -0.17,-0.03l-24.479,0c-0.147,0.026 -0.296,0.047 -0.441,0.079c-1.352,0.309 -2.352,1.397 -2.545,2.767c-0.008,0.057 -0.02,0.113 -0.029,0.171l0,24.478c0.028,0.155 0.05,0.312 0.085,0.466c0.299,1.322 1.427,2.347 2.77,2.52c0.064,0.007 0.13,0.02 0.195,0.03l24.409,0l0,-0.002zm-13.705,-48.255l28.146,16.25l0,32.5l-28.146,16.25l-28.146,-16.25l0,-32.5l28.146,-16.25z"/>
 </g>
</svg>