<svg width="67" height="67" xmlns="http://www.w3.org/2000/svg">

 <g>
  <title>background</title>
  <rect fill="none" id="canvas_background" height="402" width="582" y="-1" x="-1"/>
 </g>
 <g>
  <title>Layer 1</title>
  <path id="svg_1" fill-rule="evenodd" clip-rule="evenodd" fill="#ffffff" d="m50.837,46.137l0,-11.712c0,-6.274 -3.35,-9.194 -7.816,-9.194c-3.604,0 -5.219,1.982 -6.119,3.373l0,-2.894l-6.79,0c0.09,1.917 0,20.428 0,20.428l6.79,0l0,-11.409c0,-0.61 0.044,-1.22 0.224,-1.657c0.49,-1.219 1.607,-2.482 3.482,-2.482c2.458,0 3.44,1.873 3.44,4.618l0,10.929l6.789,0zm-27.878,-23.215c2.367,0 3.842,-1.569 3.842,-3.531c-0.044,-2.003 -1.475,-3.528 -3.797,-3.528s-3.841,1.525 -3.841,3.528c0,1.962 1.474,3.531 3.753,3.531l0.043,0zm3.395,23.215l0,-20.427l-6.789,0l0,20.427l6.789,0zm7.146,-45.137l28.146,16.25l0,32.5l-28.146,16.25l-28.146,-16.25l0,-32.5l28.146,-16.25z"/>
 </g>
</svg>